<?xml version="1.0" standalone="no"?>
<!DOCTYPE svg PUBLIC "-//W3C//DTD SVG 20010904//EN"
 "http://www.w3.org/TR/2001/REC-SVG-20010904/DTD/svg10.dtd">
<svg version="1.0" xmlns="http://www.w3.org/2000/svg"
 width="3464.000000pt" height="3464.000000pt" viewBox="0 0 3464.000000 3464.000000"
 preserveAspectRatio="xMidYMid meet">

<g transform="translate(0.000000,3464.000000) scale(0.100000,-0.100000)"
fill="#000000" stroke="none">
<path d="M16620 33709 c-723 -28 -1385 -89 -2010 -184 -2831 -431 -5365 -1561
-7600 -3389 -923 -755 -1809 -1642 -2566 -2571 -1357 -1664 -2354 -3569 -2919
-5580 -504 -1790 -705 -3731 -595 -5730 153 -2779 939 -5311 2344 -7555 989
-1581 2331 -3074 3851 -4286 2522 -2011 5418 -3148 8680 -3408 562 -45 722
-51 1485 -51 780 0 935 6 1540 56 2436 199 4663 887 6680 2062 1452 846 2821
1969 4029 3307 2448 2710 3804 5868 4080 9505 42 546 46 683 45 1440 0 755 -6
920 -50 1470 -264 3303 -1421 6225 -3463 8745 -834 1029 -1873 2052 -2900
2854 -2851 2227 -6191 3337 -10006 3324 -236 0 -518 -5 -625 -9z m2092 -12523
c2 -3946 6 -7178 9 -7181 6 -5 106 16 459 97 47 10 114 26 150 34 36 8 92 21
125 28 33 8 114 26 180 41 66 15 145 33 175 40 30 7 127 29 215 49 132 29 401
90 600 136 22 5 69 16 105 24 36 7 148 33 250 56 270 62 296 68 395 90 50 11
117 26 150 34 158 36 437 99 495 113 205 47 192 50 213 -40 9 -40 17 -80 17
-89 0 -9 6 -38 14 -64 8 -27 27 -89 41 -139 35 -121 87 -248 153 -375 255
-493 682 -803 1297 -943 234 -54 494 -67 640 -33 162 37 298 135 357 256 56
118 62 138 62 234 0 88 -2 97 -39 170 -80 160 -264 317 -560 479 -55 30 -127
69 -160 88 -170 94 -741 382 -990 499 -277 130 -709 336 -815 388 -152 74
-656 362 -859 490 -454 286 -634 423 -876 667 -177 179 -407 465 -456 570 -11
22 -40 72 -64 110 -25 39 -49 79 -55 90 -6 11 -28 52 -50 90 -57 100 -153 298
-185 380 -15 39 -33 84 -40 100 -15 37 -79 241 -98 315 -38 144 -52 220 -89
475 -15 105 -14 722 1 835 58 440 65 473 176 905 23 91 105 337 130 392 8 17
15 34 15 38 0 4 6 21 14 38 8 18 27 61 42 97 90 221 264 529 413 735 414 571
967 1000 1681 1305 80 34 159 68 175 75 17 7 77 29 135 50 58 20 116 41 130
47 98 40 305 99 640 183 119 29 272 58 460 85 36 6 94 14 130 20 330 50 1018
60 1410 21 364 -36 577 -68 840 -126 36 -7 101 -21 145 -31 129 -27 544 -130
620 -154 17 -5 59 -18 95 -29 278 -84 724 -242 793 -281 9 -6 50 -23 90 -39
160 -64 481 -223 639 -316 9 -5 34 -19 55 -31 21 -12 98 -59 171 -105 73 -46
154 -95 180 -109 61 -32 89 -51 187 -124 548 -407 1003 -910 1327 -1466 82
-141 188 -345 188 -362 0 -8 11 -36 24 -64 13 -27 45 -98 70 -159 26 -60 51
-119 56 -130 41 -95 160 -447 160 -473 0 -8 6 -28 14 -45 11 -28 43 -143 67
-247 25 -107 50 -233 47 -236 -2 -2 -53 -10 -113 -19 -61 -9 -132 -20 -160
-25 -27 -6 -84 -14 -125 -20 -41 -5 -154 -21 -250 -36 -194 -29 -339 -50 -445
-64 -38 -5 -79 -12 -90 -14 -18 -5 -251 -39 -445 -66 -36 -5 -139 -21 -230
-34 -91 -14 -199 -30 -240 -36 -105 -15 -253 -38 -330 -50 -36 -6 -130 -20
-210 -31 -80 -11 -188 -27 -240 -35 -52 -8 -126 -18 -165 -24 -38 -5 -146 -21
-240 -35 -190 -29 -310 -46 -465 -69 -228 -33 -437 -65 -467 -72 -30 -6 -32
-4 -42 32 -6 22 -11 45 -11 51 0 22 -67 247 -89 298 -106 252 -137 306 -257
456 -294 366 -620 526 -1163 571 -139 11 -151 10 -242 -11 -207 -47 -336 -171
-375 -357 -30 -143 -14 -245 55 -351 97 -150 231 -252 591 -449 254 -139 484
-235 895 -374 83 -28 173 -60 200 -70 28 -11 104 -41 170 -66 107 -41 299
-123 470 -199 75 -33 431 -211 545 -273 449 -240 931 -552 1305 -846 50 -39
92 -73 95 -76 3 -3 46 -39 95 -80 270 -224 486 -478 667 -785 52 -87 159 -299
192 -380 54 -132 117 -300 127 -338 5 -21 13 -45 18 -55 5 -9 21 -66 36 -127
14 -60 30 -126 35 -145 6 -19 19 -87 29 -150 69 -405 66 -918 -8 -1395 -31
-194 -79 -441 -91 -466 -5 -9 -12 -34 -15 -55 -4 -22 -13 -57 -20 -79 -7 -22
-25 -83 -40 -135 -15 -52 -30 -104 -35 -115 -4 -11 -18 -49 -31 -85 -82 -236
-214 -527 -326 -720 -52 -88 -200 -319 -212 -330 -4 -3 -35 -43 -71 -90 -141
-186 -399 -458 -565 -595 -33 -28 -62 -53 -65 -56 -13 -15 -224 -172 -290
-216 -196 -131 -428 -254 -639 -339 -47 -19 -95 -39 -106 -44 -29 -13 -251
-84 -320 -103 -33 -9 -91 -25 -130 -36 -92 -26 -290 -73 -440 -104 -109 -23
-165 -34 -350 -66 -136 -24 -435 -59 -705 -83 -197 -17 -983 -17 -1195 0 -455
37 -742 76 -1130 154 -82 17 -170 34 -195 39 -25 5 -63 13 -85 19 -22 5 -80
19 -130 30 -116 27 -431 106 -515 130 -291 82 -694 209 -732 230 -10 6 -28 10
-40 10 -27 0 -318 107 -433 160 -33 15 -106 46 -175 75 -100 42 -452 216 -580
287 -353 197 -669 411 -965 654 -167 138 -468 429 -547 529 l-23 30 -5 -1029
-5 -1029 -2470 2 c-1358 1 -2473 5 -2477 7 -4 3 -8 274 -9 602 l0 597 -67 -75
c-375 -419 -714 -698 -1132 -933 -357 -200 -789 -361 -1210 -451 -328 -69
-574 -98 -998 -116 -252 -11 -688 6 -927 35 -236 28 -291 36 -340 45 -27 6
-99 19 -159 30 -850 157 -1678 537 -2361 1085 -306 245 -662 597 -884 875 -25
30 -70 82 -102 115 -108 114 -356 470 -540 775 -93 156 -312 579 -371 720
-188 449 -286 733 -387 1125 -183 705 -271 1450 -271 2275 0 313 9 537 30 805
14 167 67 607 81 673 6 26 24 119 40 207 16 88 34 175 40 192 5 18 14 54 19
80 33 176 109 470 165 638 7 22 23 72 35 110 11 39 49 144 82 235 34 91 67
182 74 203 8 20 18 45 23 55 5 9 28 62 51 117 316 754 827 1512 1419 2106 463
465 926 799 1481 1073 201 99 228 111 405 180 348 135 587 202 1060 297 108
21 349 52 592 74 204 19 817 22 1003 5 278 -26 553 -62 675 -89 254 -57 237
-53 465 -121 74 -23 144 -45 155 -49 11 -5 65 -25 120 -46 333 -124 718 -339
1015 -565 179 -137 476 -415 601 -565 71 -84 107 -118 118 -111 8 5 11 851 11
3282 l0 3274 2469 0 2469 0 4 -7174z m-16 -12833 c4 -15 4 -536 1 -1158 -4
-621 -7 -1232 -7 -1358 l0 -227 -4882 2 -4883 3 -3 1370 c-1 754 0 1376 3
1383 3 9 990 12 4884 12 l4881 0 6 -27z"/>
<path d="M11072 18810 c-175 -15 -390 -63 -566 -125 -162 -57 -208 -79 -411
-194 -156 -90 -442 -345 -577 -517 -128 -161 -253 -366 -322 -524 -15 -36 -34
-79 -42 -97 -8 -17 -14 -37 -14 -45 0 -8 -4 -18 -8 -23 -28 -32 -110 -351
-132 -510 -6 -44 -16 -116 -23 -160 -15 -105 -15 -558 1 -645 6 -36 16 -105
22 -155 11 -91 30 -186 57 -285 25 -91 66 -224 74 -240 4 -8 22 -51 39 -95 18
-44 60 -134 95 -200 121 -232 231 -379 432 -576 367 -360 745 -545 1278 -626
150 -22 613 -26 740 -5 166 27 202 34 265 49 304 71 564 192 807 375 122 91
231 195 361 342 58 67 109 123 112 126 28 24 171 254 224 360 275 548 352
1274 205 1930 -20 90 -55 211 -69 245 -5 11 -14 37 -20 58 -7 22 -18 51 -26
65 -8 15 -14 31 -14 35 0 35 -189 378 -262 477 -80 108 -232 282 -319 365
-248 237 -480 375 -839 498 -60 21 -207 56 -284 69 -33 5 -83 14 -111 19 -70
12 -561 19 -673 9z"/>
</g>
</svg>
